<mxfile host="app.diagrams.net" agent="Mozilla/5.0 (Windows NT 10.0; Win64; x64) AppleWebKit/537.36 (KHTML, like Gecko) Chrome/140.0.0.0 Safari/537.36 Edg/140.0.0.0" version="28.2.5">
  <diagram name="ページ1" id="o3Opy6AEb5egUnQNy0kA">
    <mxGraphModel dx="4778" dy="1402" grid="1" gridSize="10" guides="1" tooltips="1" connect="1" arrows="1" fold="1" page="1" pageScale="1" pageWidth="1169" pageHeight="827" math="0" shadow="0">
      <root>
        <mxCell id="0" />
        <mxCell id="1" parent="0" />
        <mxCell id="3P1xNXliMwJQ0byvx68k-3" style="edgeStyle=orthogonalEdgeStyle;rounded=0;orthogonalLoop=1;jettySize=auto;html=1;" edge="1" parent="1" source="3P1xNXliMwJQ0byvx68k-1" target="3P1xNXliMwJQ0byvx68k-4">
          <mxGeometry relative="1" as="geometry">
            <mxPoint x="-3300" y="100" as="targetPoint" />
          </mxGeometry>
        </mxCell>
        <mxCell id="3P1xNXliMwJQ0byvx68k-1" value="カスタマーサポーター" style="shape=umlActor;verticalLabelPosition=bottom;verticalAlign=top;html=1;" vertex="1" parent="1">
          <mxGeometry x="-3440" y="70" width="30" height="60" as="geometry" />
        </mxCell>
        <mxCell id="3P1xNXliMwJQ0byvx68k-4" value="メニュー画面" style="shape=umlBoundary;whiteSpace=wrap;html=1;" vertex="1" parent="1">
          <mxGeometry x="-3350" y="60" width="100" height="80" as="geometry" />
        </mxCell>
        <mxCell id="3P1xNXliMwJQ0byvx68k-8" style="edgeStyle=orthogonalEdgeStyle;rounded=0;orthogonalLoop=1;jettySize=auto;html=1;" edge="1" parent="1" source="3P1xNXliMwJQ0byvx68k-5" target="3P1xNXliMwJQ0byvx68k-7">
          <mxGeometry relative="1" as="geometry" />
        </mxCell>
        <mxCell id="3P1xNXliMwJQ0byvx68k-5" value="お問い合わせ一覧ボタンを選択" style="ellipse;shape=umlControl;whiteSpace=wrap;html=1;" vertex="1" parent="1">
          <mxGeometry x="-3220" y="10" width="70" height="80" as="geometry" />
        </mxCell>
        <mxCell id="3P1xNXliMwJQ0byvx68k-6" style="edgeStyle=orthogonalEdgeStyle;rounded=0;orthogonalLoop=1;jettySize=auto;html=1;entryX=0.048;entryY=0.594;entryDx=0;entryDy=0;entryPerimeter=0;" edge="1" parent="1" source="3P1xNXliMwJQ0byvx68k-4" target="3P1xNXliMwJQ0byvx68k-5">
          <mxGeometry relative="1" as="geometry" />
        </mxCell>
        <mxCell id="3P1xNXliMwJQ0byvx68k-7" value="お問い合わせ一覧" style="shape=umlBoundary;whiteSpace=wrap;html=1;" vertex="1" parent="1">
          <mxGeometry x="-3080" y="60" width="100" height="80" as="geometry" />
        </mxCell>
        <mxCell id="3P1xNXliMwJQ0byvx68k-9" value="条件を入力" style="ellipse;shape=umlControl;whiteSpace=wrap;html=1;" vertex="1" parent="1">
          <mxGeometry x="-2922" y="50" width="70" height="80" as="geometry" />
        </mxCell>
        <mxCell id="3P1xNXliMwJQ0byvx68k-10" value="" style="endArrow=open;endFill=1;endSize=12;html=1;rounded=0;exitX=0.972;exitY=0.539;exitDx=0;exitDy=0;exitPerimeter=0;entryX=0.032;entryY=0.622;entryDx=0;entryDy=0;entryPerimeter=0;" edge="1" parent="1" source="3P1xNXliMwJQ0byvx68k-7" target="3P1xNXliMwJQ0byvx68k-9">
          <mxGeometry width="160" relative="1" as="geometry">
            <mxPoint x="-3170" y="140" as="sourcePoint" />
            <mxPoint x="-3010" y="140" as="targetPoint" />
          </mxGeometry>
        </mxCell>
        <mxCell id="3P1xNXliMwJQ0byvx68k-25" style="edgeStyle=orthogonalEdgeStyle;rounded=0;orthogonalLoop=1;jettySize=auto;html=1;" edge="1" parent="1" source="3P1xNXliMwJQ0byvx68k-11" target="3P1xNXliMwJQ0byvx68k-23">
          <mxGeometry relative="1" as="geometry" />
        </mxCell>
        <mxCell id="3P1xNXliMwJQ0byvx68k-11" value="条件と合致するものを表示" style="shape=umlBoundary;whiteSpace=wrap;html=1;" vertex="1" parent="1">
          <mxGeometry x="-2960" y="270" width="100" height="80" as="geometry" />
        </mxCell>
        <mxCell id="3P1xNXliMwJQ0byvx68k-16" value="" style="endArrow=open;endFill=1;endSize=12;html=1;rounded=0;exitX=0.111;exitY=0.851;exitDx=0;exitDy=0;exitPerimeter=0;" edge="1" parent="1" source="3P1xNXliMwJQ0byvx68k-9" target="3P1xNXliMwJQ0byvx68k-18">
          <mxGeometry width="160" relative="1" as="geometry">
            <mxPoint x="-3010" y="170" as="sourcePoint" />
            <mxPoint x="-3120" y="220" as="targetPoint" />
            <Array as="points">
              <mxPoint x="-3070" y="190" />
            </Array>
          </mxGeometry>
        </mxCell>
        <mxCell id="3P1xNXliMwJQ0byvx68k-17" value="条件と合致しなかった場合" style="edgeLabel;html=1;align=center;verticalAlign=middle;resizable=0;points=[];" vertex="1" connectable="0" parent="3P1xNXliMwJQ0byvx68k-16">
          <mxGeometry x="-0.1044" y="4" relative="1" as="geometry">
            <mxPoint as="offset" />
          </mxGeometry>
        </mxCell>
        <mxCell id="3P1xNXliMwJQ0byvx68k-18" value="該当なしを表示" style="shape=umlBoundary;whiteSpace=wrap;html=1;" vertex="1" parent="1">
          <mxGeometry x="-3170" y="180" width="100" height="80" as="geometry" />
        </mxCell>
        <mxCell id="3P1xNXliMwJQ0byvx68k-19" value="メニュー画面に戻るを選択" style="ellipse;shape=umlControl;whiteSpace=wrap;html=1;" vertex="1" parent="1">
          <mxGeometry x="-3320" y="180" width="70" height="80" as="geometry" />
        </mxCell>
        <mxCell id="3P1xNXliMwJQ0byvx68k-20" style="edgeStyle=orthogonalEdgeStyle;rounded=0;orthogonalLoop=1;jettySize=auto;html=1;entryX=1.016;entryY=0.56;entryDx=0;entryDy=0;entryPerimeter=0;" edge="1" parent="1" source="3P1xNXliMwJQ0byvx68k-18" target="3P1xNXliMwJQ0byvx68k-19">
          <mxGeometry relative="1" as="geometry" />
        </mxCell>
        <mxCell id="3P1xNXliMwJQ0byvx68k-22" style="edgeStyle=orthogonalEdgeStyle;rounded=0;orthogonalLoop=1;jettySize=auto;html=1;entryX=0.533;entryY=1.046;entryDx=0;entryDy=0;entryPerimeter=0;" edge="1" parent="1" source="3P1xNXliMwJQ0byvx68k-19" target="3P1xNXliMwJQ0byvx68k-4">
          <mxGeometry relative="1" as="geometry" />
        </mxCell>
        <mxCell id="3P1xNXliMwJQ0byvx68k-23" value="確認したい問い合わせを選択" style="ellipse;shape=umlControl;whiteSpace=wrap;html=1;" vertex="1" parent="1">
          <mxGeometry x="-2740" y="220" width="70" height="80" as="geometry" />
        </mxCell>
        <mxCell id="3P1xNXliMwJQ0byvx68k-24" value="問い合わせの詳細を表示" style="shape=umlBoundary;whiteSpace=wrap;html=1;" vertex="1" parent="1">
          <mxGeometry x="-2600" y="220" width="100" height="80" as="geometry" />
        </mxCell>
        <mxCell id="3P1xNXliMwJQ0byvx68k-26" style="edgeStyle=orthogonalEdgeStyle;rounded=0;orthogonalLoop=1;jettySize=auto;html=1;entryX=0.028;entryY=0.56;entryDx=0;entryDy=0;entryPerimeter=0;" edge="1" parent="1" source="3P1xNXliMwJQ0byvx68k-23" target="3P1xNXliMwJQ0byvx68k-24">
          <mxGeometry relative="1" as="geometry" />
        </mxCell>
        <mxCell id="3P1xNXliMwJQ0byvx68k-30" style="edgeStyle=orthogonalEdgeStyle;rounded=0;orthogonalLoop=1;jettySize=auto;html=1;" edge="1" parent="1" source="3P1xNXliMwJQ0byvx68k-27" target="3P1xNXliMwJQ0byvx68k-29">
          <mxGeometry relative="1" as="geometry" />
        </mxCell>
        <mxCell id="3P1xNXliMwJQ0byvx68k-27" value="必要に応じて返信処理" style="ellipse;shape=umlControl;whiteSpace=wrap;html=1;" vertex="1" parent="1">
          <mxGeometry x="-2440" y="220" width="70" height="80" as="geometry" />
        </mxCell>
        <mxCell id="3P1xNXliMwJQ0byvx68k-28" style="edgeStyle=orthogonalEdgeStyle;rounded=0;orthogonalLoop=1;jettySize=auto;html=1;entryX=-0.031;entryY=0.5;entryDx=0;entryDy=0;entryPerimeter=0;" edge="1" parent="1" source="3P1xNXliMwJQ0byvx68k-24" target="3P1xNXliMwJQ0byvx68k-27">
          <mxGeometry relative="1" as="geometry" />
        </mxCell>
        <mxCell id="3P1xNXliMwJQ0byvx68k-29" value="返信内容を登録" style="ellipse;shape=umlEntity;whiteSpace=wrap;html=1;" vertex="1" parent="1">
          <mxGeometry x="-2445" y="70" width="80" height="80" as="geometry" />
        </mxCell>
        <mxCell id="3P1xNXliMwJQ0byvx68k-13" value="検索ボタンを押す" style="text;html=1;align=center;verticalAlign=middle;resizable=0;points=[];autosize=1;strokeColor=none;fillColor=none;rotation=90;" vertex="1" parent="1">
          <mxGeometry x="-2930" y="170" width="120" height="30" as="geometry" />
        </mxCell>
        <mxCell id="3P1xNXliMwJQ0byvx68k-32" style="edgeStyle=orthogonalEdgeStyle;rounded=0;orthogonalLoop=1;jettySize=auto;html=1;entryX=0.737;entryY=0.021;entryDx=0;entryDy=0;entryPerimeter=0;" edge="1" parent="1" source="3P1xNXliMwJQ0byvx68k-9" target="3P1xNXliMwJQ0byvx68k-11">
          <mxGeometry relative="1" as="geometry" />
        </mxCell>
        <mxCell id="3P1xNXliMwJQ0byvx68k-35" value="問い合わせの返信状況を更新" style="ellipse;shape=umlControl;whiteSpace=wrap;html=1;" vertex="1" parent="1">
          <mxGeometry x="-2690" y="60" width="70" height="80" as="geometry" />
        </mxCell>
        <mxCell id="3P1xNXliMwJQ0byvx68k-37" value="" style="endArrow=open;endFill=1;endSize=12;html=1;rounded=0;exitX=0.112;exitY=0.281;exitDx=0;exitDy=0;exitPerimeter=0;entryX=0.957;entryY=0.76;entryDx=0;entryDy=0;entryPerimeter=0;" edge="1" parent="1" source="3P1xNXliMwJQ0byvx68k-27" target="3P1xNXliMwJQ0byvx68k-35">
          <mxGeometry width="160" relative="1" as="geometry">
            <mxPoint x="-2850" y="180" as="sourcePoint" />
            <mxPoint x="-2690" y="180" as="targetPoint" />
          </mxGeometry>
        </mxCell>
        <mxCell id="3P1xNXliMwJQ0byvx68k-38" value="" style="endArrow=open;endFill=1;endSize=12;html=1;rounded=0;exitX=0.136;exitY=0.302;exitDx=0;exitDy=0;exitPerimeter=0;entryX=0.878;entryY=0.188;entryDx=0;entryDy=0;entryPerimeter=0;" edge="1" parent="1" source="3P1xNXliMwJQ0byvx68k-35" target="3P1xNXliMwJQ0byvx68k-7">
          <mxGeometry width="160" relative="1" as="geometry">
            <mxPoint x="-2920" y="210" as="sourcePoint" />
            <mxPoint x="-2760" y="210" as="targetPoint" />
            <Array as="points">
              <mxPoint x="-2850" y="10" />
            </Array>
          </mxGeometry>
        </mxCell>
      </root>
    </mxGraphModel>
  </diagram>
</mxfile>
